<?xml version="1.0" encoding="UTF-8" standalone="no"?>
<!-- Created with Inkscape (http://www.inkscape.org/) -->

<svg
   width="8.4666681mm"
   height="8.4666681mm"
   viewBox="0 0 8.4666681 8.4666681"
   version="1.1"
   id="svg1696"
   inkscape:version="1.2.2 (b0a8486541, 2022-12-01)"
   sodipodi:docname="logo.svg"
   xmlns:inkscape="http://www.inkscape.org/namespaces/inkscape"
   xmlns:sodipodi="http://sodipodi.sourceforge.net/DTD/sodipodi-0.dtd"
   xmlns="http://www.w3.org/2000/svg"
   xmlns:svg="http://www.w3.org/2000/svg">
  <sodipodi:namedview
     id="namedview1698"
     pagecolor="#505050"
     bordercolor="#ffffff"
     borderopacity="1"
     inkscape:showpageshadow="0"
     inkscape:pageopacity="0"
     inkscape:pagecheckerboard="1"
     inkscape:deskcolor="#505050"
     inkscape:document-units="mm"
     showgrid="false"
     inkscape:zoom="5.6159371"
     inkscape:cx="6.9445222"
     inkscape:cy="-0.26709701"
     inkscape:window-width="1920"
     inkscape:window-height="958"
     inkscape:window-x="0"
     inkscape:window-y="0"
     inkscape:window-maximized="1"
     inkscape:current-layer="layer1" />
  <defs
     id="defs1693" />
  <g
     inkscape:label="Layer 1"
     inkscape:groupmode="layer"
     id="layer1"
     transform="translate(-132.95956,-215.87834)">
    <rect
       style="fill:none;fill-opacity:1;stroke-width:2.619;stroke-linecap:round;stroke-linejoin:round;stop-color:#000000"
       id="rect318-6"
       width="8.4666615"
       height="8.4666615"
       x="132.95956"
       y="215.87834" />
    <circle
       style="fill:#0287cb;fill-opacity:1;stroke-width:2.619;stroke-linecap:round;stroke-linejoin:round;stop-color:#000000"
       id="path1377"
       cx="137.1929"
       cy="220.11168"
       r="4.2333307" />
    <path
       id="path882"
       style="fill:#ffffff;stroke:none;stroke-width:0.264583"
       d="m 139.40997,217.99501 c -0.04,0.0537 -0.0442,0.13932 -0.0721,0.20121 -0.059,0.13106 -0.14158,0.25537 -0.24524,0.35567 -0.26424,0.2557 -0.60619,0.41529 -0.95182,0.52906 -0.23868,0.0786 -0.48418,0.12915 -0.71194,0.23935 -0.20113,0.0973 -0.40333,0.22383 -0.53591,0.40815 -0.10499,0.14593 -0.14063,0.34284 -0.15349,0.51848 -0.0169,0.23096 -0.0114,0.46763 0.0273,0.69646 0.0198,0.1176 0.063,0.23149 0.0879,0.34824 0.0287,0.13449 0.0585,0.2719 0.0474,0.41014 -0.008,0.0982 -0.0565,0.19384 -0.0435,0.29406 0.0106,0.0822 0.053,0.20687 0.16028,0.18267 0.0611,-0.0138 0.0867,-0.0807 0.0932,-0.13623 0.0143,-0.12218 -1.8e-4,-0.24179 0,-0.36371 0,-0.342 -0.0384,-0.68886 -0.071,-1.02923 -0.0169,-0.17801 -0.0619,-0.37176 -0.0262,-0.54943 0.0567,-0.28171 0.31236,-0.46163 0.55372,-0.5823 0.49408,-0.24705 1.0805,-0.29845 1.5477,-0.59936 0.2784,-0.17931 0.58452,-0.61706 0.29406,-0.92323 z m 0.15558,0.44693 c -0.0358,0.009 -0.0497,0.0889 -0.066,0.11799 -0.0617,0.11003 -0.14459,0.19892 -0.21489,0.3018 -0.0435,0.0637 0.0241,0.20699 0.0246,0.28633 0.21154,-0.0217 0.36129,-0.21602 0.36367,-0.41788 0,-0.0799 -0.01,-0.15952 -0.0447,-0.23215 -0.0111,-0.0229 -0.0306,-0.0639 -0.0628,-0.0561 z m -0.40543,0.51279 c -0.0503,0.008 -0.10718,0.0651 -0.14483,0.0861 -0.15893,0.0887 -0.33316,0.14766 -0.503,0.21115 -0.0404,0.0151 -0.1643,0.0366 -0.1833,0.0763 -0.0292,0.0609 0.0355,0.19095 0.0483,0.25322 0.0175,0.085 -0.0132,0.14349 -0.0275,0.22441 0.27307,-0.10591 0.63208,-0.20588 0.82325,-0.4411 0.0754,-0.0927 0.1538,-0.30343 0.0343,-0.39841 -0.0143,-0.0114 -0.0305,-0.0142 -0.0472,-0.0116 z m 0.38137,0.19572 c -0.20663,0.0182 -0.30898,0.25112 -0.43262,0.39228 -0.0344,0.0392 -0.0762,0.1478 0.0148,0.15227 0.15309,0.008 0.37523,-0.13191 0.43426,-0.26835 0.0228,-0.0523 0.0892,-0.28552 -0.0164,-0.2762 z m -1.30003,0.19881 c -0.24963,0.0572 -0.50673,0.17019 -0.73517,0.28441 -0.11872,0.0594 -0.24503,0.12486 -0.32562,0.23408 -0.10266,0.13914 -0.12107,0.32078 -0.1,0.48752 0.0792,-0.0363 0.14558,-0.10433 0.22442,-0.14504 0.18699,-0.0965 0.38373,-0.16508 0.58037,-0.2386 0.12179,-0.0455 0.30686,-0.0821 0.39055,-0.18913 0.0944,-0.1206 0.0341,-0.3156 -0.0346,-0.43324 z m 1.15356,0.31898 c -0.019,-0.003 -0.0423,-0.003 -0.0702,5.3e-4 -0.0666,0.01 -0.1511,0.0405 -0.18068,0.10602 -0.0254,0.0561 -0.01,0.11158 -0.0531,0.16248 -0.0635,0.0743 -0.15885,0.10242 -0.22886,0.16663 -0.0212,0.0195 -0.074,0.13086 -0.0159,0.1356 0.0443,0.004 0.10356,-0.0246 0.14589,-0.0368 0.14814,-0.0428 0.31028,-0.0946 0.40209,-0.22667 0.0683,-0.0983 0.13465,-0.28437 0,-0.30785 z m -0.4971,0.01 c -0.07,0.002 -0.1442,0.0278 -0.19989,0.0515 -0.12327,0.0525 -0.26969,0.1033 -0.40241,0.12282 l 0.0114,0.20894 -0.0733,0.17026 c 0.22572,0 0.52089,-0.085 0.68874,-0.2406 0.0594,-0.0551 0.20508,-0.20847 0.0921,-0.2834 -0.0341,-0.0226 -0.0746,-0.0305 -0.11658,-0.0295 z m -0.72488,0.29714 c -0.0311,-0.004 -0.0675,0.006 -0.0941,0.0132 -0.0906,0.0254 -0.18291,0.0519 -0.27086,0.0851 -0.17327,0.0654 -0.33819,0.14576 -0.503,0.22959 -0.0674,0.0343 -0.17015,0.077 -0.20941,0.14517 -0.0431,0.0749 -0.005,0.22624 0.0238,0.30178 0.15594,-0.0728 0.30173,-0.1705 0.45656,-0.247 0.10454,-0.0516 0.21194,-0.0962 0.31729,-0.14598 0.10692,-0.0505 0.24826,-0.11473 0.31293,-0.21837 0.0254,-0.0406 0.049,-0.12461 -0.004,-0.15455 -0.009,-0.005 -0.0185,-0.008 -0.0289,-0.009 z m -1.49476,0.14805 c -0.0633,0.0295 -0.11351,0.098 -0.16251,0.14702 -0.1076,0.10759 -0.21389,0.21677 -0.31959,0.32623 -0.32358,0.33518 -0.65878,0.65989 -0.98824,0.98933 -0.11608,0.11608 -0.23241,0.23188 -0.34822,0.34823 -0.0466,0.0468 -0.12507,0.10702 -0.14703,0.17024 h 1.43163 0.43334 l 0.22442,-0.008 -0.0122,-0.22443 0.0508,-0.20894 -0.99055,-0.0232 c 0.16368,-0.23237 0.39863,-0.43137 0.58944,-0.64229 0.0649,-0.0717 0.17688,-0.15099 0.2159,-0.24019 0.029,-0.0665 -0.0103,-0.19122 -0.0153,-0.26281 -0.009,-0.12675 0.0326,-0.2466 0.038,-0.37145 z m 2.012,0.058 c -0.0593,2.6e-4 -0.12433,0.0371 -0.17799,0.0592 -0.0901,0.0371 -0.22794,0.0347 -0.27919,0.13051 -0.0251,0.047 -0.0198,0.10466 -0.0361,0.15473 -0.0164,0.0502 -0.0506,0.0909 -0.0697,0.13926 -0.009,0.0226 -0.004,0.043 0.0217,0.0485 0.0509,0.0107 0.12104,-0.0149 0.16978,-0.0285 0.14732,-0.041 0.26924,-0.0816 0.35248,-0.22114 0.0282,-0.0473 0.14401,-0.28325 0.019,-0.28254 z m 0.41788,0.0548 c -0.22013,0 -0.27265,0.16626 -0.40373,0.3048 -0.0407,0.0431 -0.10297,0.0607 -0.14126,0.10454 -0.0191,0.0218 -0.0222,0.0514 0.0114,0.0571 0.19203,0.0328 0.43474,-0.0536 0.5715,-0.1859 0.10065,-0.0974 0.16007,-0.28058 -0.038,-0.28058 z m -1.06775,0.13668 c -0.0735,0.007 -0.15634,0.0598 -0.21683,0.0891 -0.13623,0.066 -0.26805,0.13942 -0.4024,0.20894 -0.0769,0.0398 -0.17465,0.078 -0.23847,0.13718 -0.0609,0.0564 -0.0683,0.14157 -0.0324,0.21305 0.14198,-0.0325 0.28282,-0.0915 0.41789,-0.14548 0.0964,-0.0385 0.192,-0.0771 0.2863,-0.12052 0.10216,-0.0471 0.22582,-0.10724 0.27752,-0.21378 0.0294,-0.0605 0.0222,-0.15895 -0.0608,-0.16829 -0.0101,-0.001 -0.0204,-0.001 -0.0308,-1.5e-4 z m 0.32266,0.35846 c -0.0341,-9e-5 -0.0701,0.006 -0.0907,0.009 -0.07,0.01 -0.17139,0.0253 -0.22116,0.0811 -0.0233,0.0262 -0.0322,0.0632 -0.0538,0.0912 -0.0262,0.0342 -0.0591,0.0588 -0.0733,0.1006 0.15049,0.0568 0.33544,0.0361 0.44812,-0.0852 0.0298,-0.032 0.0972,-0.12031 0.0698,-0.16805 -0.0127,-0.0223 -0.045,-0.0287 -0.079,-0.0288 z m 0.44042,0.0172 c -0.0333,-1.9e-4 -0.0691,0.007 -0.09,0.0116 -0.15089,0.0313 -0.25559,0.15453 -0.30181,0.29958 0.12732,0.0376 0.31189,-0.0231 0.40169,-0.11638 0.0337,-0.035 0.0885,-0.10727 0.0657,-0.16046 -0.0114,-0.0263 -0.0422,-0.0342 -0.0756,-0.0344 z m -0.92577,0.0677 c -0.0785,-0.003 -0.15031,0.0688 -0.21665,0.10049 -0.11596,0.0553 -0.24354,0.0871 -0.36372,0.13203 -0.0409,0.0153 -0.094,0.0238 -0.12941,0.0503 -0.0487,0.0366 -0.018,0.13696 0.0367,0.14928 0.062,0.014 0.13173,-0.002 0.19333,-0.0125 0.15888,-0.0265 0.31657,-0.072 0.44098,-0.17947 0.0395,-0.0341 0.1701,-0.23508 0.0388,-0.24015 z m 0.22672,0.29528 c -0.034,-0.002 -0.0687,0.001 -0.0952,0.005 -0.12967,0.0171 -0.15679,0.1533 -0.19343,0.26088 -0.0293,0.0859 -0.0448,0.17321 0.0774,0.16118 0.10814,-0.0106 0.24625,-0.0684 0.30763,-0.16118 0.042,-0.0635 0.0703,-0.1911 -0.006,-0.24189 -0.0233,-0.0154 -0.0563,-0.0219 -0.0902,-0.0237 z m 0.27577,0.0282 c -0.0193,0.002 -0.037,0.009 -0.0504,0.0228 -0.0586,0.061 -0.0225,0.1694 -0.0766,0.23771 -0.045,0.0567 -0.1193,0.10094 -0.12782,0.17799 0.17558,-5.3e-4 0.42844,-0.13871 0.39291,-0.34822 -0.009,-0.0525 -0.0803,-0.0956 -0.13809,-0.0903 z m -0.75009,0.077 c -0.10459,0.0128 -0.20979,0.0446 -0.30956,0.0777 -0.041,0.0136 -0.09,0.0235 -0.12216,0.0542 -0.0507,0.0485 -0.0682,0.20969 0,0.25252 0.0342,0.0212 0.11327,0.0103 0.15213,0.007 0.12195,-0.0116 0.26599,-0.0394 0.34214,-0.14574 0.0683,-0.0953 0.095,-0.26487 -0.0635,-0.2454 z m 0.20569,0.36545 c -0.0534,0.004 -0.10481,0.0202 -0.13103,0.0519 -0.0287,0.0347 -0.0323,0.0847 -0.0585,0.12216 -0.037,0.0528 -0.0899,0.0987 -0.12123,0.15478 -0.0366,0.0654 -0.0357,0.19189 -0.0188,0.2631 0.11052,-0.0279 0.16523,-0.12323 0.13928,-0.23216 0.12345,-0.023 0.26029,-0.0379 0.3411,-0.14703 0.0444,-0.06 0.0738,-0.14634 -0.008,-0.19004 -0.0339,-0.018 -0.0892,-0.0266 -0.1425,-0.0227 z m -0.3682,0.0602 c -0.0751,0.009 -0.24008,0.003 -0.28863,0.0683 -0.0499,0.0674 -0.006,0.16581 0,0.23906 0.007,0.0689 -0.0384,0.13972 -0.0193,0.20813 0.018,0.0651 0.16016,0.0759 0.21424,0.069 0.15142,-0.0191 0.0365,-0.21537 0.0602,-0.29968 0.008,-0.0303 0.0475,-0.0497 0.068,-0.0717 0.0733,-0.0783 0.12724,-0.23238 -0.0353,-0.21314 z" />
  </g>
</svg>
